<?xml version="1.0" standalone="no"?>
<!DOCTYPE svg PUBLIC "-//W3C//DTD SVG 20010904//EN"
 "http://www.w3.org/TR/2001/REC-SVG-20010904/DTD/svg10.dtd">
<svg version="1.0" xmlns="http://www.w3.org/2000/svg"
 width="400.000000pt" height="118.000000pt" viewBox="0 0 400.000000 118.000000"
 preserveAspectRatio="xMidYMid meet">
<metadata>
Created by potrace 1.16, written by Peter Selinger 2001-2019
</metadata>
<g transform="translate(0.000000,118.000000) scale(0.100000,-0.100000)"
fill="#000000" stroke="none">
<path d="M431 1165 c-198 -55 -364 -224 -415 -421 -21 -80 -21 -228 0 -308 52
-202 220 -368 424 -421 91 -24 262 -17 344 13 173 63 305 198 367 372 34 94
34 286 0 380 -62 174 -194 309 -367 372 -77 28 -271 35 -353 13z m229 -226
c215 -52 316 -86 326 -107 11 -25 16 -349 7 -402 -10 -55 -20 -58 -130 -35
l-83 18 -1 91 c0 141 -8 168 -49 188 -31 15 -162 55 -288 88 l-44 11 7 72 c11
130 10 128 58 121 23 -4 112 -24 197 -45z m-294 -154 c20 -4 22 -14 29 -122 4
-65 11 -127 15 -138 8 -22 131 -65 288 -102 l72 -17 -1 -70 c-1 -39 -4 -84 -8
-101 -6 -28 -9 -30 -46 -27 -49 4 -402 93 -469 119 -39 14 -52 24 -59 48 -13
43 -12 384 1 416 l11 27 73 -14 c40 -7 83 -16 94 -19z"/>
<path d="M2067 914 c-67 -21 -122 -78 -143 -149 -12 -44 -15 -88 -12 -198 4
-160 17 -200 83 -255 47 -38 96 -52 181 -52 129 0 218 67 245 183 6 31 10 104
7 177 -4 142 -22 197 -80 250 -61 56 -181 75 -281 44z m165 -153 c33 -29 33
-30 36 -136 2 -59 1 -123 -3 -142 -9 -50 -45 -83 -90 -83 -84 0 -105 38 -105
188 0 124 11 166 49 187 41 23 77 18 113 -14z"/>
<path d="M3686 920 c-85 -22 -126 -77 -126 -170 0 -87 32 -127 167 -207 95
-56 119 -80 108 -112 -9 -28 -30 -33 -147 -32 l-108 2 0 -60 c0 -58 1 -61 28
-68 15 -5 79 -8 142 -8 132 0 173 14 218 73 21 28 27 48 30 102 6 107 -24 147
-172 227 -98 53 -117 73 -100 101 10 15 28 17 135 17 l124 0 3 58 c3 54 2 58
-24 67 -38 15 -231 21 -278 10z"/>
<path d="M1410 855 l0 -65 80 0 80 0 2 -262 3 -263 70 0 70 0 3 263 2 262 80
0 80 0 0 65 0 65 -235 0 -235 0 0 -65z"/>
<path d="M2456 904 c-3 -9 -6 -31 -6 -49 0 -61 5 -65 86 -65 l74 0 0 -254 c0
-206 3 -256 14 -265 9 -7 40 -11 78 -9 l63 3 3 263 2 262 80 0 80 0 0 65 0 65
-234 0 c-204 0 -235 -2 -240 -16z"/>
<path d="M2970 901 c0 -44 132 -568 149 -591 27 -37 59 -50 126 -50 67 0 99
13 126 50 17 23 149 547 149 591 0 17 -8 19 -74 19 -41 0 -77 -4 -80 -8 -3 -5
-28 -114 -55 -243 -63 -290 -61 -282 -67 -277 -2 3 -29 118 -59 257 -30 139
-57 257 -61 262 -3 5 -39 9 -80 9 -66 0 -74 -2 -74 -19z"/>
</g>
</svg>
